<svg width="794" height="587" viewBox="0 0 794 587" fill="none" xmlns="http://www.w3.org/2000/svg">
<path d="M293.79 152.029C295.161 153.321 301.399 162.93 302.717 164.904L321.268 192.504C345.894 229.067 371.422 267.424 396.779 303.435C404.629 291.175 413.684 278.351 421.899 266.295L463.209 205.549L487.158 169.93C490.363 165.178 496.194 156.072 499.624 152.047C510.489 167.916 523.478 186.113 533.408 202.282C524.738 216.694 511.473 234.868 501.798 249.106L467.699 299.885C454.699 318.68 441.924 337.635 429.379 356.74C436.424 368.63 444.614 383.565 451.829 394.875C458.504 384 468.424 370.48 475.889 359.59L519.878 295.325C528.038 283.51 536.138 271.654 544.178 259.756C547.943 254.136 554.544 243.522 558.654 238.642C563.484 245.128 568.933 253.903 573.533 260.77L597.344 295.945L665.853 397.355L749.898 521.485C763.778 541.965 780.048 564.965 793.228 585.685C772.013 586.205 748.993 585.75 727.603 585.74L609.533 585.645C603.928 575.405 593.409 560.275 586.904 550.17L551.768 494.96C542.763 480.98 532.118 465.3 523.923 451.06C526.098 446.705 532.808 437.44 535.768 433.185C543.358 422.405 550.873 411.57 558.323 400.69C587.988 442.875 615.233 487.57 644.908 529.595C649.348 529.065 656.803 529.235 661.473 529.235C670.178 529.155 678.884 529.24 687.589 529.49C677.224 514.89 666.828 498.995 656.708 484.08L598.243 397.695L575.168 363.49C569.698 355.385 564.013 346.64 557.993 338.975C550.248 351.995 537.418 369.32 528.663 382.05C513.523 404.06 498.438 426.935 482.988 448.64C509.638 493.785 537.698 540.16 563.373 585.685L520.818 585.73C517.388 585.75 498.548 586.42 496.658 585.05C492.458 578.795 485.764 566.62 481.694 559.69L451.108 507.805C449.318 510.6 447.178 513.305 445.288 516.05C429.223 539.39 412.244 562.355 396.819 586.11C391.799 579.655 386.338 570.94 381.474 564.15C368.277 545.73 355.417 525.875 341.795 507.855C327.404 533.515 309.937 560.065 296.469 585.77L229.969 585.65C239.186 567.645 254.873 542.295 265.415 524.575C280.211 499.29 295.173 474.105 310.298 449.015L234.992 339.275C227.51 349.435 219.48 361.585 212.359 372.07L168.061 437.725L126.877 498.325C120.331 507.96 111.752 519.79 105.82 529.47C119.165 528.92 134.669 529.62 148.466 529.46C175.7 486.885 206.423 442.83 234.914 400.915L269.798 451.065C265.647 456.86 260.67 465.055 256.803 471.15L235.063 505.26C218.548 530.995 199.374 559.58 184.069 585.815L0 585.71C6.697 574.305 19.821 555.865 27.4665 544.495L85.8 458.665L234.595 238.597C238.873 244.032 243.86 251.827 247.86 257.717L269.822 289.995L341.7 394.765C348.782 383.56 357.062 368.185 363.829 356.435L292.611 250.796L271.524 219.621C268.285 214.838 262.634 206.947 260.023 202.105C267.484 189.306 276.852 176.876 284.978 164.444C287.692 160.291 290.785 155.968 293.79 152.029Z" fill="white"/>
<path d="M396.669 0C398.174 1.5525 403.214 9.29 404.769 11.603L421.444 36.4925C439.619 63.6575 458.404 90.649 476.144 118.05C470.709 125.688 465.309 134.341 460.089 142.202L435.319 179.22C422.509 198.492 408.984 217.642 396.704 237.214C392.144 231.299 387.139 223.004 382.869 216.541L355.727 175.477L330.929 138.41C327.074 132.671 320.522 123.596 317.494 117.936C320.023 112.471 333.257 94.0645 337.283 87.9135C349.201 69.7935 361.3 51.7925 373.576 33.913C381.013 22.9395 388.954 10.679 396.669 0Z" fill="white"/>
</svg>
